<svg id="レイヤー_1" xmlns="http://www.w3.org/2000/svg" viewBox="0 0 40.1 40.1"><style>.st0{fill:#f7f9f7}</style><g id="グループ_2" transform="translate(-47.82)"><path id="パス_5" class="st0" d="M73.8 8.3h-12c-3.2 0-5.7 2.6-5.8 5.8v12c0 3.2 2.6 5.7 5.8 5.8h12c3.2 0 5.7-2.6 5.8-5.8V14c0-3.1-2.6-5.7-5.8-5.7.1 0 .1 0 0 0zm-6 19.2c-4.1 0-7.5-3.3-7.5-7.5 0-4.1 3.3-7.5 7.5-7.5 4.1 0 7.5 3.3 7.5 7.5 0 4.1-3.3 7.5-7.5 7.5zm7.8-13.4c-1 0-1.8-.8-1.8-1.8s.8-1.8 1.8-1.8 1.8.8 1.8 1.8-.8 1.8-1.8 1.8z"/><path id="パス_6" class="st0" d="M82.9 0H52.8c-2.8 0-5 2.2-5 5v30.1c0 2.8 2.2 5 5 5h30.1c2.8 0 5-2.2 5-5V5c0-2.8-2.3-5-5-5zm-.6 26c0 4.7-3.8 8.4-8.4 8.4h-12c-4.7 0-8.4-3.8-8.4-8.4V14c0-4.7 3.8-8.4 8.4-8.4h12c4.7 0 8.4 3.8 8.4 8.4v12z"/><path id="パス_7" class="st0" d="M67.8 15.3c-2.6 0-4.8 2.1-4.8 4.8 0 2.6 2.1 4.8 4.8 4.8 2.6 0 4.8-2.1 4.8-4.8 0-2.7-2.1-4.8-4.8-4.8z"/></g></svg>